<svg xmlns="http://www.w3.org/2000/svg" width="138" height="48">
<text x="5" y="14" font-size="11" fill="#333">o_proj: per-token relative error</text>
<rect x="0" y="20" width="8" height="8" fill="#0000ff" stroke="none"/>
<rect x="8" y="20" width="8" height="8" fill="#0000ff" stroke="none"/>
<rect x="16" y="20" width="8" height="8" fill="#0000ff" stroke="none"/>
<rect x="24" y="20" width="8" height="8" fill="#0000ff" stroke="none"/>
<rect x="32" y="20" width="8" height="8" fill="#0000ff" stroke="none"/>
<rect x="40" y="20" width="8" height="8" fill="#0000ff" stroke="none"/>
<rect x="48" y="20" width="8" height="8" fill="#0000ff" stroke="none"/>
<rect x="56" y="20" width="8" height="8" fill="#0000ff" stroke="none"/>
<rect x="64" y="20" width="8" height="8" fill="#0000ff" stroke="none"/>
<rect x="72" y="20" width="8" height="8" fill="#0000ff" stroke="none"/>
<rect x="80" y="20" width="8" height="8" fill="#0000ff" stroke="none"/>
<rect x="88" y="20" width="8" height="8" fill="#0000ff" stroke="none"/>
<rect x="96" y="20" width="8" height="8" fill="#0000ff" stroke="none"/>
<rect x="104" y="20" width="8" height="8" fill="#0000ff" stroke="none"/>
<rect x="112" y="20" width="8" height="8" fill="#0000ff" stroke="none"/>
<rect x="120" y="20" width="8" height="8" fill="#0000ff" stroke="none"/>
</svg>