<svg xmlns="http://www.w3.org/2000/svg" width="800" height="520">
<rect width="800" height="520" fill="#0f0f1a"/>
<text x="20" y="30" fill="#ffffff" font-size="16" font-family="monospace">PhotoMedGemma — Photonic Inference vs. NumPy Reference</text>
<text x="20" y="50" fill="#aaaaaa" font-size="11" font-family="monospace">image: synthetic_xray  |  4 layers  |  16 patches</text>
<rect x="20" y="70" width="0" height="20" fill="#00cc66" opacity="0.8"/>
<text x="530" y="84" fill="#cccccc" font-size="11" font-family="monospace">attn.q_proj                err=1.61e-15</text>
<rect x="20" y="100" width="0" height="20" fill="#00cc66" opacity="0.8"/>
<text x="530" y="114" fill="#cccccc" font-size="11" font-family="monospace">attn.k_proj                err=1.17e-15</text>
<rect x="20" y="130" width="0" height="20" fill="#00cc66" opacity="0.8"/>
<text x="530" y="144" fill="#cccccc" font-size="11" font-family="monospace">attn.v_proj                err=1.27e-15</text>
<rect x="20" y="160" width="0" height="20" fill="#00cc66" opacity="0.8"/>
<text x="530" y="174" fill="#cccccc" font-size="11" font-family="monospace">attn.o_proj                err=1.88e-15</text>
<text x="20" y="205" fill="#aaaaaa" font-size="11" font-family="monospace">Error heatmap (layers × patches):</text>
<rect x="20" y="210" width="19" height="19" fill="#0044fe"/>
<rect x="40" y="210" width="19" height="19" fill="#0044fe"/>
<rect x="60" y="210" width="19" height="19" fill="#0044fe"/>
<rect x="80" y="210" width="19" height="19" fill="#0044fe"/>
<rect x="100" y="210" width="19" height="19" fill="#0044fe"/>
<rect x="120" y="210" width="19" height="19" fill="#0044fe"/>
<rect x="140" y="210" width="19" height="19" fill="#0044fe"/>
<rect x="160" y="210" width="19" height="19" fill="#0044fe"/>
<rect x="180" y="210" width="19" height="19" fill="#0044fe"/>
<rect x="200" y="210" width="19" height="19" fill="#0044fe"/>
<rect x="220" y="210" width="19" height="19" fill="#0044fe"/>
<rect x="240" y="210" width="19" height="19" fill="#0044fe"/>
<rect x="260" y="210" width="19" height="19" fill="#0044fe"/>
<rect x="280" y="210" width="19" height="19" fill="#0044fe"/>
<rect x="300" y="210" width="19" height="19" fill="#0044fe"/>
<rect x="320" y="210" width="19" height="19" fill="#0044fe"/>
<rect x="20" y="230" width="19" height="19" fill="#0044fe"/>
<rect x="40" y="230" width="19" height="19" fill="#0044fe"/>
<rect x="60" y="230" width="19" height="19" fill="#0044fe"/>
<rect x="80" y="230" width="19" height="19" fill="#0044fe"/>
<rect x="100" y="230" width="19" height="19" fill="#0044fe"/>
<rect x="120" y="230" width="19" height="19" fill="#0044fe"/>
<rect x="140" y="230" width="19" height="19" fill="#0044fe"/>
<rect x="160" y="230" width="19" height="19" fill="#0044fe"/>
<rect x="180" y="230" width="19" height="19" fill="#0044fe"/>
<rect x="200" y="230" width="19" height="19" fill="#0044fe"/>
<rect x="220" y="230" width="19" height="19" fill="#0044fe"/>
<rect x="240" y="230" width="19" height="19" fill="#0044fe"/>
<rect x="260" y="230" width="19" height="19" fill="#0044fe"/>
<rect x="280" y="230" width="19" height="19" fill="#0044fe"/>
<rect x="300" y="230" width="19" height="19" fill="#0044fe"/>
<rect x="320" y="230" width="19" height="19" fill="#0044fe"/>
<rect x="20" y="250" width="19" height="19" fill="#0044fe"/>
<rect x="40" y="250" width="19" height="19" fill="#0044fe"/>
<rect x="60" y="250" width="19" height="19" fill="#0044fe"/>
<rect x="80" y="250" width="19" height="19" fill="#0044fe"/>
<rect x="100" y="250" width="19" height="19" fill="#0044fe"/>
<rect x="120" y="250" width="19" height="19" fill="#0044fe"/>
<rect x="140" y="250" width="19" height="19" fill="#0044fe"/>
<rect x="160" y="250" width="19" height="19" fill="#0044fe"/>
<rect x="180" y="250" width="19" height="19" fill="#0044fe"/>
<rect x="200" y="250" width="19" height="19" fill="#0044fe"/>
<rect x="220" y="250" width="19" height="19" fill="#0044fe"/>
<rect x="240" y="250" width="19" height="19" fill="#0044fe"/>
<rect x="260" y="250" width="19" height="19" fill="#0044fe"/>
<rect x="280" y="250" width="19" height="19" fill="#0044fe"/>
<rect x="300" y="250" width="19" height="19" fill="#0044fe"/>
<rect x="320" y="250" width="19" height="19" fill="#0044fe"/>
<rect x="20" y="270" width="19" height="19" fill="#0044fe"/>
<rect x="40" y="270" width="19" height="19" fill="#0044fe"/>
<rect x="60" y="270" width="19" height="19" fill="#0044fe"/>
<rect x="80" y="270" width="19" height="19" fill="#0044fe"/>
<rect x="100" y="270" width="19" height="19" fill="#0044fe"/>
<rect x="120" y="270" width="19" height="19" fill="#0044fe"/>
<rect x="140" y="270" width="19" height="19" fill="#0044fe"/>
<rect x="160" y="270" width="19" height="19" fill="#0044fe"/>
<rect x="180" y="270" width="19" height="19" fill="#0044fe"/>
<rect x="200" y="270" width="19" height="19" fill="#0044fe"/>
<rect x="220" y="270" width="19" height="19" fill="#0044fe"/>
<rect x="240" y="270" width="19" height="19" fill="#0044fe"/>
<rect x="260" y="270" width="19" height="19" fill="#0044fe"/>
<rect x="280" y="270" width="19" height="19" fill="#0044fe"/>
<rect x="300" y="270" width="19" height="19" fill="#0044fe"/>
<rect x="320" y="270" width="19" height="19" fill="#0044fe"/>
<rect x="20" y="310" width="20" height="12" fill="#0044ff"/>
<text x="45" y="320" fill="#aaa" font-size="10" font-family="monospace">Low error (&lt;1%)</text>
<rect x="150" y="310" width="20" height="12" fill="#ff4444"/>
<text x="175" y="320" fill="#aaa" font-size="10" font-family="monospace">High error (&gt;2%)</text>
</svg>