<svg xmlns="http://www.w3.org/2000/svg" width="660" height="110">
<text x="5" y="14" font-size="10" fill="#333">o_proj: photonic vs numpy (token 0)</text>
<text x="5" y="26" font-size="8" fill="#00aaff">■ photonic</text>
<text x="65" y="26" font-size="8" fill="#ff4444">■ numpy ref</text>
<rect x="5" y="65" width="4" height="25" fill="#00aaff" opacity="0.8"/>
<rect x="9" y="65" width="4" height="25" fill="#ff4444" opacity="0.6"/>
<rect x="15" y="68" width="4" height="22" fill="#00aaff" opacity="0.8"/>
<rect x="19" y="68" width="4" height="22" fill="#ff4444" opacity="0.6"/>
<rect x="25" y="69" width="4" height="21" fill="#00aaff" opacity="0.8"/>
<rect x="29" y="69" width="4" height="21" fill="#ff4444" opacity="0.6"/>
<rect x="35" y="47" width="4" height="43" fill="#00aaff" opacity="0.8"/>
<rect x="39" y="47" width="4" height="43" fill="#ff4444" opacity="0.6"/>
<rect x="45" y="60" width="4" height="30" fill="#00aaff" opacity="0.8"/>
<rect x="49" y="60" width="4" height="30" fill="#ff4444" opacity="0.6"/>
<rect x="55" y="54" width="4" height="36" fill="#00aaff" opacity="0.8"/>
<rect x="59" y="54" width="4" height="36" fill="#ff4444" opacity="0.6"/>
<rect x="65" y="43" width="4" height="47" fill="#00aaff" opacity="0.8"/>
<rect x="69" y="43" width="4" height="47" fill="#ff4444" opacity="0.6"/>
<rect x="75" y="56" width="4" height="34" fill="#00aaff" opacity="0.8"/>
<rect x="79" y="56" width="4" height="34" fill="#ff4444" opacity="0.6"/>
<rect x="85" y="77" width="4" height="13" fill="#00aaff" opacity="0.8"/>
<rect x="89" y="77" width="4" height="13" fill="#ff4444" opacity="0.6"/>
<rect x="95" y="76" width="4" height="14" fill="#00aaff" opacity="0.8"/>
<rect x="99" y="76" width="4" height="14" fill="#ff4444" opacity="0.6"/>
<rect x="105" y="69" width="4" height="21" fill="#00aaff" opacity="0.8"/>
<rect x="109" y="69" width="4" height="21" fill="#ff4444" opacity="0.6"/>
<rect x="115" y="50" width="4" height="40" fill="#00aaff" opacity="0.8"/>
<rect x="119" y="50" width="4" height="40" fill="#ff4444" opacity="0.6"/>
<rect x="125" y="43" width="4" height="47" fill="#00aaff" opacity="0.8"/>
<rect x="129" y="43" width="4" height="47" fill="#ff4444" opacity="0.6"/>
<rect x="135" y="71" width="4" height="19" fill="#00aaff" opacity="0.8"/>
<rect x="139" y="71" width="4" height="19" fill="#ff4444" opacity="0.6"/>
<rect x="145" y="58" width="4" height="32" fill="#00aaff" opacity="0.8"/>
<rect x="149" y="58" width="4" height="32" fill="#ff4444" opacity="0.6"/>
<rect x="155" y="65" width="4" height="25" fill="#00aaff" opacity="0.8"/>
<rect x="159" y="65" width="4" height="25" fill="#ff4444" opacity="0.6"/>
<rect x="165" y="78" width="4" height="12" fill="#00aaff" opacity="0.8"/>
<rect x="169" y="78" width="4" height="12" fill="#ff4444" opacity="0.6"/>
<rect x="175" y="59" width="4" height="31" fill="#00aaff" opacity="0.8"/>
<rect x="179" y="59" width="4" height="31" fill="#ff4444" opacity="0.6"/>
<rect x="185" y="63" width="4" height="27" fill="#00aaff" opacity="0.8"/>
<rect x="189" y="63" width="4" height="27" fill="#ff4444" opacity="0.6"/>
<rect x="195" y="59" width="4" height="31" fill="#00aaff" opacity="0.8"/>
<rect x="199" y="59" width="4" height="31" fill="#ff4444" opacity="0.6"/>
<rect x="205" y="49" width="4" height="41" fill="#00aaff" opacity="0.8"/>
<rect x="209" y="49" width="4" height="41" fill="#ff4444" opacity="0.6"/>
<rect x="215" y="79" width="4" height="11" fill="#00aaff" opacity="0.8"/>
<rect x="219" y="79" width="4" height="11" fill="#ff4444" opacity="0.6"/>
<rect x="225" y="61" width="4" height="29" fill="#00aaff" opacity="0.8"/>
<rect x="229" y="61" width="4" height="29" fill="#ff4444" opacity="0.6"/>
<rect x="235" y="47" width="4" height="43" fill="#00aaff" opacity="0.8"/>
<rect x="239" y="47" width="4" height="43" fill="#ff4444" opacity="0.6"/>
<rect x="245" y="62" width="4" height="28" fill="#00aaff" opacity="0.8"/>
<rect x="249" y="62" width="4" height="28" fill="#ff4444" opacity="0.6"/>
<rect x="255" y="82" width="4" height="8" fill="#00aaff" opacity="0.8"/>
<rect x="259" y="82" width="4" height="8" fill="#ff4444" opacity="0.6"/>
<rect x="265" y="65" width="4" height="25" fill="#00aaff" opacity="0.8"/>
<rect x="269" y="65" width="4" height="25" fill="#ff4444" opacity="0.6"/>
<rect x="275" y="80" width="4" height="10" fill="#00aaff" opacity="0.8"/>
<rect x="279" y="80" width="4" height="10" fill="#ff4444" opacity="0.6"/>
<rect x="285" y="81" width="4" height="9" fill="#00aaff" opacity="0.8"/>
<rect x="289" y="81" width="4" height="9" fill="#ff4444" opacity="0.6"/>
<rect x="295" y="89" width="4" height="1" fill="#00aaff" opacity="0.8"/>
<rect x="299" y="89" width="4" height="1" fill="#ff4444" opacity="0.6"/>
<rect x="305" y="63" width="4" height="27" fill="#00aaff" opacity="0.8"/>
<rect x="309" y="63" width="4" height="27" fill="#ff4444" opacity="0.6"/>
<rect x="315" y="63" width="4" height="27" fill="#00aaff" opacity="0.8"/>
<rect x="319" y="63" width="4" height="27" fill="#ff4444" opacity="0.6"/>
<rect x="325" y="73" width="4" height="17" fill="#00aaff" opacity="0.8"/>
<rect x="329" y="73" width="4" height="17" fill="#ff4444" opacity="0.6"/>
<rect x="335" y="71" width="4" height="19" fill="#00aaff" opacity="0.8"/>
<rect x="339" y="71" width="4" height="19" fill="#ff4444" opacity="0.6"/>
<rect x="345" y="31" width="4" height="59" fill="#00aaff" opacity="0.8"/>
<rect x="349" y="31" width="4" height="59" fill="#ff4444" opacity="0.6"/>
<rect x="355" y="58" width="4" height="32" fill="#00aaff" opacity="0.8"/>
<rect x="359" y="58" width="4" height="32" fill="#ff4444" opacity="0.6"/>
<rect x="365" y="32" width="4" height="58" fill="#00aaff" opacity="0.8"/>
<rect x="369" y="32" width="4" height="58" fill="#ff4444" opacity="0.6"/>
<rect x="375" y="67" width="4" height="23" fill="#00aaff" opacity="0.8"/>
<rect x="379" y="67" width="4" height="23" fill="#ff4444" opacity="0.6"/>
<rect x="385" y="77" width="4" height="13" fill="#00aaff" opacity="0.8"/>
<rect x="389" y="77" width="4" height="13" fill="#ff4444" opacity="0.6"/>
<rect x="395" y="75" width="4" height="15" fill="#00aaff" opacity="0.8"/>
<rect x="399" y="75" width="4" height="15" fill="#ff4444" opacity="0.6"/>
<rect x="405" y="46" width="4" height="44" fill="#00aaff" opacity="0.8"/>
<rect x="409" y="46" width="4" height="44" fill="#ff4444" opacity="0.6"/>
<rect x="415" y="62" width="4" height="28" fill="#00aaff" opacity="0.8"/>
<rect x="419" y="62" width="4" height="28" fill="#ff4444" opacity="0.6"/>
<rect x="425" y="52" width="4" height="38" fill="#00aaff" opacity="0.8"/>
<rect x="429" y="52" width="4" height="38" fill="#ff4444" opacity="0.6"/>
<rect x="435" y="50" width="4" height="40" fill="#00aaff" opacity="0.8"/>
<rect x="439" y="50" width="4" height="40" fill="#ff4444" opacity="0.6"/>
<rect x="445" y="54" width="4" height="36" fill="#00aaff" opacity="0.8"/>
<rect x="449" y="54" width="4" height="36" fill="#ff4444" opacity="0.6"/>
<rect x="455" y="34" width="4" height="56" fill="#00aaff" opacity="0.8"/>
<rect x="459" y="34" width="4" height="56" fill="#ff4444" opacity="0.6"/>
<rect x="465" y="40" width="4" height="50" fill="#00aaff" opacity="0.8"/>
<rect x="469" y="40" width="4" height="50" fill="#ff4444" opacity="0.6"/>
<rect x="475" y="49" width="4" height="41" fill="#00aaff" opacity="0.8"/>
<rect x="479" y="49" width="4" height="41" fill="#ff4444" opacity="0.6"/>
<rect x="485" y="52" width="4" height="38" fill="#00aaff" opacity="0.8"/>
<rect x="489" y="52" width="4" height="38" fill="#ff4444" opacity="0.6"/>
<rect x="495" y="86" width="4" height="4" fill="#00aaff" opacity="0.8"/>
<rect x="499" y="86" width="4" height="4" fill="#ff4444" opacity="0.6"/>
<rect x="505" y="58" width="4" height="32" fill="#00aaff" opacity="0.8"/>
<rect x="509" y="58" width="4" height="32" fill="#ff4444" opacity="0.6"/>
<rect x="515" y="56" width="4" height="34" fill="#00aaff" opacity="0.8"/>
<rect x="519" y="56" width="4" height="34" fill="#ff4444" opacity="0.6"/>
<rect x="525" y="52" width="4" height="38" fill="#00aaff" opacity="0.8"/>
<rect x="529" y="52" width="4" height="38" fill="#ff4444" opacity="0.6"/>
<rect x="535" y="49" width="4" height="41" fill="#00aaff" opacity="0.8"/>
<rect x="539" y="49" width="4" height="41" fill="#ff4444" opacity="0.6"/>
<rect x="545" y="66" width="4" height="24" fill="#00aaff" opacity="0.8"/>
<rect x="549" y="66" width="4" height="24" fill="#ff4444" opacity="0.6"/>
<rect x="555" y="50" width="4" height="40" fill="#00aaff" opacity="0.8"/>
<rect x="559" y="50" width="4" height="40" fill="#ff4444" opacity="0.6"/>
<rect x="565" y="55" width="4" height="35" fill="#00aaff" opacity="0.8"/>
<rect x="569" y="55" width="4" height="35" fill="#ff4444" opacity="0.6"/>
<rect x="575" y="70" width="4" height="20" fill="#00aaff" opacity="0.8"/>
<rect x="579" y="70" width="4" height="20" fill="#ff4444" opacity="0.6"/>
<rect x="585" y="59" width="4" height="31" fill="#00aaff" opacity="0.8"/>
<rect x="589" y="59" width="4" height="31" fill="#ff4444" opacity="0.6"/>
<rect x="595" y="54" width="4" height="36" fill="#00aaff" opacity="0.8"/>
<rect x="599" y="54" width="4" height="36" fill="#ff4444" opacity="0.6"/>
<rect x="605" y="65" width="4" height="25" fill="#00aaff" opacity="0.8"/>
<rect x="609" y="65" width="4" height="25" fill="#ff4444" opacity="0.6"/>
<rect x="615" y="55" width="4" height="35" fill="#00aaff" opacity="0.8"/>
<rect x="619" y="55" width="4" height="35" fill="#ff4444" opacity="0.6"/>
<rect x="625" y="48" width="4" height="42" fill="#00aaff" opacity="0.8"/>
<rect x="629" y="48" width="4" height="42" fill="#ff4444" opacity="0.6"/>
<rect x="635" y="73" width="4" height="17" fill="#00aaff" opacity="0.8"/>
<rect x="639" y="73" width="4" height="17" fill="#ff4444" opacity="0.6"/>
<line x1="5" y1="90" x2="655" y2="90" stroke="#888" stroke-width="0.5"/>
</svg>